<svg width="16" height="16" viewBox="0 0 16 16" fill="none" xmlns="http://www.w3.org/2000/svg">
<path d="M13.956 15C14.2519 15 14.4985 14.9016 14.6958 14.7049C14.8986 14.5137 15 14.2732 15 13.9836V2.01639C15 1.72678 14.8986 1.48634 14.6958 1.29508C14.4985 1.09836 14.2519 1 13.956 1C13.6545 1 13.4024 1.09836 13.1996 1.29508C13.0023 1.48634 12.9037 1.72678 12.9037 2.01639V13.9836C12.9037 14.2732 13.0023 14.5137 13.1996 14.7049C13.4024 14.9016 13.6545 15 13.956 15ZM2.41398 14.6967C2.60579 14.6967 2.78665 14.6694 2.95655 14.6148C3.13192 14.5656 3.31278 14.4863 3.49912 14.377L11.9501 9.43443C12.268 9.24317 12.5118 9.03005 12.6817 8.79508C12.8571 8.56011 12.9448 8.29235 12.9448 7.9918C12.9448 7.69126 12.8599 7.42896 12.69 7.20492C12.5201 6.97541 12.2734 6.76229 11.9501 6.56557L3.49912 1.62295C3.3073 1.51366 3.12644 1.43443 2.95655 1.38525C2.78665 1.3306 2.60579 1.30328 2.41398 1.30328C2.02486 1.30328 1.69055 1.44536 1.41104 1.72951C1.13701 2.0082 1 2.40984 1 2.93443V13.0656C1 13.5902 1.13975 13.9918 1.41926 14.2705C1.69877 14.5546 2.03034 14.6967 2.41398 14.6967Z" fill="#171717"/>
</svg>
