<svg width="416" height="52" viewBox="0 0 416 52" fill="none" xmlns="http://www.w3.org/2000/svg">
<path fill-rule="evenodd" clip-rule="evenodd" d="M416 0H0V52H416V0ZM29.6238 2C30.176 2 30.6238 2.44727 30.6238 3V49C30.6238 49.5527 30.176 50 29.6238 50C29.3875 50 29.1704 49.918 28.9993 49.7812C28.7703 49.5977 28.6238 49.3164 28.6238 49V3C28.6238 2.7168 28.7415 2.46094 28.9307 2.2793C29.1104 2.10742 29.3547 2 29.6238 2ZM14.6494 19C14.6494 18.4473 14.2017 18 13.6494 18C13.385 18 13.1445 18.1035 12.9656 18.2715C12.771 18.4531 12.6494 18.7129 12.6494 19V33C12.6494 33.3633 12.8433 33.6816 13.1333 33.8555C13.1946 33.8926 13.2603 33.9238 13.3293 33.9473C13.4299 33.9824 13.5376 34 13.6494 34C13.7974 34 13.9377 33.9688 14.064 33.9121C14.1145 33.8887 14.1628 33.8613 14.2085 33.8301C14.4746 33.6504 14.6494 33.3457 14.6494 33V19ZM8.3252 20.1816C8.87744 20.1816 9.3252 20.6289 9.3252 21.1816V30.8184C9.3252 31.3711 8.87744 31.8184 8.3252 31.8184C7.77295 31.8184 7.3252 31.3711 7.3252 30.8184V21.1816C7.3252 20.6289 7.77295 20.1816 8.3252 20.1816ZM3.00024 22C3.55249 22 4.00024 22.4473 4.00024 23V29C4.00024 29.5527 3.55249 30 3.00024 30C2.93677 30 2.87476 29.9941 2.81445 29.9824C2.66455 29.9531 2.52661 29.8926 2.40845 29.8066C2.16089 29.625 2.00024 29.332 2.00024 29V23C2.00024 22.4473 2.448 22 3.00024 22ZM18.9744 18C19.5266 18 19.9744 18.4473 19.9744 19V33C19.9744 33.5527 19.5266 34 18.9744 34C18.4221 34 17.9744 33.5527 17.9744 33V19C17.9744 18.4473 18.4221 18 18.9744 18ZM25.2988 19C25.2988 18.4473 24.8511 18 24.2988 18C24.0068 18 23.7439 18.125 23.561 18.3242C23.3982 18.502 23.2988 18.7402 23.2988 19V33C23.2988 33.5527 23.7466 34 24.2988 34C24.5591 34 24.7959 33.9004 24.9739 33.7383C25.0537 33.6641 25.1216 33.5781 25.1743 33.4824C25.2537 33.3398 25.2988 33.1758 25.2988 33V19ZM35.4495 3.95312L35.3672 3.91016L35.261 3.86914C35.1626 3.83594 35.0576 3.81836 34.9485 3.81836C34.3962 3.81836 33.9485 4.26562 33.9485 4.81836V47.1816C33.9485 47.7344 34.3962 48.1816 34.9485 48.1816C35.1848 48.1816 35.4019 48.0996 35.573 47.9629C35.6562 47.8965 35.7285 47.8164 35.7869 47.7266C35.8892 47.5703 35.9485 47.3828 35.9485 47.1816V4.81836C35.9485 4.44922 35.7478 4.12695 35.4495 3.95312ZM40.2729 6C40.8252 6 41.2729 6.44727 41.2729 7V45C41.2729 45.5527 40.8252 46 40.2729 46C40.0989 46 39.9351 45.9551 39.7925 45.877C39.7148 45.8359 39.6436 45.7832 39.5803 45.7227C39.5339 45.6777 39.4919 45.6289 39.4548 45.5762C39.3403 45.4141 39.2729 45.2148 39.2729 45V7C39.2729 6.44727 39.7207 6 40.2729 6ZM46.5984 15C46.5984 14.4473 46.1506 14 45.5984 14C45.0461 14 44.5984 14.4473 44.5984 15V37C44.5984 37.5527 45.0461 38 45.5984 38C46.1506 38 46.5984 37.5527 46.5984 37V15ZM51.7542 17.3535C51.8604 17.5117 51.9221 17.7031 51.9221 17.9082V34.0898C51.9221 34.6426 51.4744 35.0898 50.9221 35.0898C50.3699 35.0898 49.9221 34.6426 49.9221 34.0898V17.9082C49.9221 17.3555 50.3699 16.9082 50.9221 16.9082C51.269 16.9082 51.5747 17.084 51.7542 17.3535ZM57.2463 21.1816C57.2463 20.6289 56.7986 20.1816 56.2463 20.1816C56.0056 20.1816 55.7849 20.2676 55.6123 20.4082C55.5649 20.4473 55.521 20.4902 55.4814 20.5371L55.4092 20.6348C55.3064 20.791 55.2463 20.9785 55.2463 21.1816V30.8184C55.2463 31.3711 55.6941 31.8184 56.2463 31.8184C56.7986 31.8184 57.2463 31.3711 57.2463 30.8184V21.1816ZM61.5725 15.8184C62.1248 15.8184 62.5725 16.2656 62.5725 16.8184V35.1816C62.5725 35.502 62.4219 35.7871 62.1875 35.9707C62.0178 36.1035 61.8044 36.1816 61.5725 36.1816C61.0203 36.1816 60.5725 35.7344 60.5725 35.1816V16.8184C60.5725 16.2656 61.0203 15.8184 61.5725 15.8184ZM67.8965 11C67.8965 10.4473 67.4487 10 66.8965 10C66.5474 10 66.2402 10.1797 66.0613 10.4492C65.957 10.6074 65.8965 10.7969 65.8965 11V41C65.8965 41.5527 66.3442 42 66.8965 42C67.4487 42 67.8965 41.5527 67.8965 41V11ZM72.2209 14C72.7732 14 73.2209 14.4473 73.2209 15V37C73.2209 37.5527 72.7732 38 72.2209 38C71.6687 38 71.2209 37.5527 71.2209 37V15C71.2209 14.4473 71.6687 14 72.2209 14ZM78.5461 15C78.5461 14.4473 78.0984 14 77.5461 14C77.4224 14 77.3037 14.0215 77.1941 14.0645C77.1414 14.084 77.0906 14.1074 77.0425 14.1348C76.7456 14.3086 76.5461 14.6309 76.5461 15V37C76.5461 37.5527 76.9939 38 77.5461 38C78.0984 38 78.5461 37.5527 78.5461 37V15ZM82.8713 15.8184C83.4236 15.8184 83.8713 16.2656 83.8713 16.8184V35.1816C83.8713 35.7344 83.4236 36.1816 82.8713 36.1816C82.3191 36.1816 81.8713 35.7344 81.8713 35.1816V16.8184C81.8713 16.2656 82.3191 15.8184 82.8713 15.8184ZM89.1958 15C89.1958 14.4473 88.748 14 88.1958 14C88.0974 14 88.0022 14.0137 87.9124 14.041C87.8523 14.0586 87.7947 14.082 87.74 14.1094C87.6746 14.1426 87.6133 14.1836 87.5571 14.2305C87.3364 14.4141 87.1958 14.6895 87.1958 15V37C87.1958 37.5527 87.6436 38 88.1958 38C88.748 38 89.1958 37.5527 89.1958 37V15ZM93.5205 6C93.7649 6 93.989 6.08789 94.1626 6.23242C94.3813 6.41602 94.5205 6.69141 94.5205 7V45C94.5205 45.5527 94.0728 46 93.5205 46C92.9683 46 92.5205 45.5527 92.5205 45V7C92.5205 6.64844 92.7009 6.3418 92.9739 6.16406C93.1309 6.06055 93.3186 6 93.5205 6ZM99.8445 16.8184C99.8445 16.2656 99.3967 15.8184 98.8445 15.8184C98.2922 15.8184 97.8445 16.2656 97.8445 16.8184V35.1816C97.8445 35.7344 98.2922 36.1816 98.8445 36.1816C99.3967 36.1816 99.8445 35.7344 99.8445 35.1816V16.8184ZM104.169 6C104.721 6 105.169 6.44727 105.169 7V45C105.169 45.2188 105.099 45.4219 104.98 45.5859C104.886 45.7168 104.761 45.8223 104.616 45.8945C104.481 45.9629 104.33 46 104.169 46C103.617 46 103.169 45.5527 103.169 45V7C103.169 6.44727 103.617 6 104.169 6ZM110.493 16.8184C110.493 16.2656 110.045 15.8184 109.493 15.8184C108.941 15.8184 108.493 16.2656 108.493 16.8184V35.1816C108.493 35.7344 108.941 36.1816 109.493 36.1816C110.045 36.1816 110.493 35.7344 110.493 35.1816V16.8184ZM114.818 6C115.084 6 115.327 6.10352 115.506 6.27344C115.698 6.45703 115.818 6.71484 115.818 7V45C115.818 45.3691 115.618 45.6914 115.321 45.8652C115.173 45.9512 115.001 46 114.818 46C114.266 46 113.818 45.5527 113.818 45V7C113.818 6.95312 113.821 6.90625 113.828 6.86133C113.836 6.80078 113.849 6.74414 113.867 6.68945C113.929 6.5 114.044 6.33789 114.195 6.21875C114.297 6.13672 114.415 6.07422 114.544 6.03906C114.631 6.01367 114.723 6 114.818 6ZM121.143 4.81836C121.143 4.26562 120.695 3.81836 120.143 3.81836C119.591 3.81836 119.143 4.26562 119.143 4.81836V47.1816C119.143 47.2656 119.153 47.3477 119.172 47.4238C119.202 47.541 119.252 47.6504 119.319 47.748C119.5 48.0098 119.801 48.1816 120.143 48.1816C120.695 48.1816 121.143 47.7344 121.143 47.1816V4.81836ZM125.468 15.8184C126.02 15.8184 126.468 16.2656 126.468 16.8184V35.1816C126.468 35.4121 126.39 35.625 126.258 35.7949C126.181 35.8945 126.085 35.9785 125.977 36.043C125.828 36.1309 125.654 36.1816 125.468 36.1816C124.916 36.1816 124.468 35.7344 124.468 35.1816V16.8184C124.468 16.2656 124.916 15.8184 125.468 15.8184ZM131.792 15C131.792 14.4473 131.344 14 130.792 14C130.24 14 129.792 14.4473 129.792 15V37C129.792 37.5527 130.24 38 130.792 38C131.344 38 131.792 37.5527 131.792 37V15ZM136.118 6C136.67 6 137.118 6.44727 137.118 7V45C137.118 45.5527 136.67 46 136.118 46C135.566 46 135.118 45.5527 135.118 45V7C135.118 6.44727 135.566 6 136.118 6ZM142.057 14.2109C141.887 14.0781 141.674 14 141.442 14C141.083 14 140.768 14.1895 140.591 14.4746C140.497 14.627 140.442 14.8066 140.442 15V37L140.444 37.0645C140.448 37.1152 140.454 37.166 140.465 37.2129C140.474 37.2559 140.487 37.2988 140.502 37.3398C140.543 37.4551 140.606 37.5605 140.684 37.6523C140.867 37.8652 141.139 38 141.442 38C141.994 38 142.442 37.5527 142.442 37V15C142.442 14.6797 142.291 14.3945 142.057 14.2109ZM146.767 6C147.319 6 147.767 6.44727 147.767 7V45C147.767 45.5527 147.319 46 146.767 46C146.215 46 145.767 45.5527 145.767 45V7C145.767 6.69141 145.907 6.41602 146.126 6.23242C146.3 6.08789 146.523 6 146.767 6ZM153.092 15C153.092 14.4473 152.644 14 152.092 14C151.851 14 151.629 14.0859 151.456 14.2285C151.415 14.2637 151.377 14.3008 151.343 14.3398L151.283 14.4141L151.232 14.4922L151.18 14.5898C151.124 14.7148 151.092 14.8535 151.092 15V37C151.092 37.5527 151.54 38 152.092 38C152.379 38 152.638 37.8789 152.82 37.6855C152.989 37.5059 153.092 37.2656 153.092 37V15ZM157.416 6C157.968 6 158.416 6.44727 158.416 7V45C158.416 45.5527 157.968 46 157.416 46C156.864 46 156.416 45.5527 156.416 45V7C156.416 6.44727 156.864 6 157.416 6ZM163.741 4.81836C163.741 4.26562 163.293 3.81836 162.741 3.81836C162.189 3.81836 161.741 4.26562 161.741 4.81836V47.1816C161.741 47.7344 162.189 48.1816 162.741 48.1816C163.293 48.1816 163.741 47.7344 163.741 47.1816V4.81836ZM168.065 6C168.617 6 169.065 6.44727 169.065 7V45C169.065 45.209 169.001 45.4043 168.891 45.5645C168.71 45.8281 168.408 46 168.065 46C167.513 46 167.065 45.5527 167.065 45V7C167.065 6.44727 167.513 6 168.065 6ZM174.045 14.2441C173.87 14.0918 173.641 14 173.391 14C173.255 14 173.125 14.0273 173.006 14.0762C172.967 14.0918 172.93 14.1113 172.895 14.1328L172.831 14.1719L172.777 14.2129L172.729 14.252L172.674 14.3027C172.499 14.4824 172.391 14.7285 172.391 15V37C172.391 37.3164 172.538 37.5977 172.768 37.7812C172.939 37.918 173.156 38 173.391 38C173.943 38 174.391 37.5527 174.391 37V15C174.391 14.6973 174.257 14.4277 174.045 14.2441ZM178.715 6C179.267 6 179.715 6.44727 179.715 7V45C179.715 45.5527 179.267 46 178.715 46C178.163 46 177.715 45.5527 177.715 45V7C177.715 6.44727 178.163 6 178.715 6ZM185.039 4.81836C185.039 4.26562 184.591 3.81836 184.039 3.81836C183.822 3.81836 183.62 3.88867 183.456 4.00781C183.382 4.06055 183.314 4.125 183.257 4.19727L183.221 4.24609L183.178 4.31055C183.09 4.45898 183.039 4.63281 183.039 4.81836V47.1816C183.039 47.4043 183.112 47.6094 183.234 47.7754C183.416 48.0215 183.709 48.1816 184.039 48.1816C184.591 48.1816 185.039 47.7344 185.039 47.1816V4.81836ZM189.364 10C189.916 10 190.364 10.4473 190.364 11V41C190.364 41.5527 189.916 42 189.364 42C188.812 42 188.364 41.5527 188.364 41V11C188.364 10.4473 188.812 10 189.364 10ZM195.307 2.21484C195.247 2.16797 195.181 2.12695 195.111 2.09375C194.983 2.0332 194.84 2 194.689 2C194.137 2 193.689 2.44727 193.689 3V49C193.689 49.5527 194.137 50 194.689 50L194.78 49.998L194.885 49.9805L194.937 49.9668L195.003 49.9473L195.079 49.9199L195.135 49.8965L195.189 49.8652L195.252 49.8262C195.516 49.6465 195.689 49.3438 195.689 49V3C195.689 2.68164 195.54 2.39844 195.307 2.21484ZM200.934 6.60742C200.963 6.67578 200.985 6.74805 200.998 6.82227C201.009 6.88086 201.014 6.93945 201.014 7V45C201.014 45.5527 200.566 46 200.014 46C199.462 46 199.014 45.5527 199.014 45V7C199.014 6.44727 199.462 6 200.014 6C200.427 6 200.782 6.25 200.934 6.60742ZM206.339 4.81836C206.339 4.26562 205.891 3.81836 205.339 3.81836C205.273 3.81836 205.208 3.82422 205.145 3.83789C205.094 3.84766 205.045 3.86133 204.998 3.87891C204.938 3.90039 204.882 3.92578 204.829 3.95703C204.772 3.99023 204.718 4.03125 204.669 4.07617C204.631 4.11133 204.595 4.14844 204.562 4.18945C204.423 4.36133 204.339 4.58008 204.339 4.81836V47.1816C204.339 47.7344 204.787 48.1816 205.339 48.1816C205.891 48.1816 206.339 47.7344 206.339 47.1816V4.81836ZM211.356 10.2793C211.545 10.4609 211.663 10.7168 211.663 11V41C211.663 41.373 211.46 41.6973 211.158 41.8691C211.012 41.9531 210.843 42 210.663 42C210.111 42 209.663 41.5527 209.663 41V11C209.663 10.4473 210.111 10 210.663 10C210.932 10 211.176 10.1055 211.356 10.2793ZM216.988 15C216.988 14.4473 216.54 14 215.988 14C215.768 14 215.564 14.0703 215.399 14.1914L215.328 14.248L215.26 14.3145L215.203 14.3809L215.137 14.4746C215.115 14.5117 215.094 14.5508 215.076 14.5898C215.054 14.6387 215.036 14.6895 215.022 14.7422C215 14.8242 214.988 14.9102 214.988 15V37C214.988 37.293 215.115 37.5586 215.316 37.7422L215.373 37.7891C215.407 37.8145 215.442 37.8398 215.479 37.8613C215.531 37.8906 215.585 37.916 215.642 37.9375C215.75 37.9785 215.866 38 215.988 38C216.54 38 216.988 37.5527 216.988 37V15ZM221.313 15.8184C221.865 15.8184 222.313 16.2656 222.313 16.8184V35.1816C222.313 35.7344 221.865 36.1816 221.313 36.1816C220.761 36.1816 220.313 35.7344 220.313 35.1816V16.8184C220.313 16.2656 220.761 15.8184 221.313 15.8184ZM227.637 21.1816C227.637 20.9082 227.527 20.6602 227.349 20.4805C227.168 20.2969 226.916 20.1816 226.637 20.1816C226.085 20.1816 225.637 20.6289 225.637 21.1816V30.8184C225.637 31.3711 226.085 31.8184 226.637 31.8184C226.874 31.8184 227.092 31.7363 227.264 31.5977C227.491 31.4141 227.637 31.1328 227.637 30.8184V21.1816ZM231.962 20.1816C232.514 20.1816 232.962 20.6289 232.962 21.1816V30.8184C232.962 31.3711 232.514 31.8184 231.962 31.8184C231.41 31.8184 230.962 31.3711 230.962 30.8184V21.1816C230.962 20.6289 231.41 20.1816 231.962 20.1816ZM238.287 21.1816C238.287 20.6289 237.839 20.1816 237.287 20.1816C236.735 20.1816 236.287 20.6289 236.287 21.1816V30.8184C236.287 31.3711 236.735 31.8184 237.287 31.8184C237.839 31.8184 238.287 31.3711 238.287 30.8184V21.1816ZM242.611 15.8184C243.163 15.8184 243.611 16.2656 243.611 16.8184V35.1816C243.611 35.2402 243.606 35.2969 243.597 35.3516L243.57 35.4668L243.532 35.5723C243.504 35.6387 243.469 35.7012 243.428 35.7578C243.247 36.0137 242.948 36.1816 242.611 36.1816C242.429 36.1816 242.258 36.1328 242.111 36.0488C242.014 35.9922 241.927 35.9199 241.854 35.8359C241.703 35.6602 241.611 35.4316 241.611 35.1816V16.8184C241.611 16.2656 242.059 15.8184 242.611 15.8184ZM248.936 16.8184C248.936 16.6289 248.884 16.4531 248.793 16.3027C248.618 16.0117 248.3 15.8184 247.936 15.8184C247.384 15.8184 246.936 16.2656 246.936 16.8184V35.1816C246.936 35.7344 247.384 36.1816 247.936 36.1816C248.488 36.1816 248.936 35.7344 248.936 35.1816V16.8184ZM253.26 2C253.812 2 254.26 2.44727 254.26 3V49C254.26 49.5527 253.812 50 253.26 50C253.147 50 253.039 49.9805 252.938 49.9453C252.844 49.9141 252.756 49.8691 252.676 49.8125C252.424 49.6309 252.26 49.334 252.26 49V3C252.26 2.74414 252.355 2.51172 252.512 2.33594C252.695 2.12891 252.962 2 253.26 2ZM259.586 16.8184C259.586 16.2656 259.138 15.8184 258.586 15.8184C258.034 15.8184 257.586 16.2656 257.586 16.8184V35.1816C257.586 35.7344 258.034 36.1816 258.586 36.1816C259.138 36.1816 259.586 35.7344 259.586 35.1816V16.8184ZM264.759 10.4707C264.854 10.623 264.91 10.8047 264.91 11V41C264.91 41.5527 264.462 42 263.91 42C263.843 42 263.778 41.9922 263.714 41.9805C263.652 41.9688 263.593 41.9512 263.535 41.9277C263.431 41.8848 263.336 41.8262 263.253 41.7539C263.043 41.5703 262.91 41.3008 262.91 41V11C262.91 10.4473 263.358 10 263.91 10C264.268 10 264.582 10.1875 264.759 10.4707ZM270.234 4.81836C270.234 4.26562 269.786 3.81836 269.234 3.81836C269.083 3.81836 268.941 3.85156 268.813 3.91016C268.471 4.06836 268.234 4.41602 268.234 4.81836V47.1816C268.234 47.7344 268.682 48.1816 269.234 48.1816C269.786 48.1816 270.234 47.7344 270.234 47.1816V4.81836ZM275.494 20.8223C275.537 20.9336 275.56 21.0547 275.56 21.1816V30.8184C275.56 31.3711 275.112 31.8184 274.56 31.8184C274.008 31.8184 273.56 31.3711 273.56 30.8184V21.1816C273.56 20.6289 274.008 20.1816 274.56 20.1816C274.721 20.1816 274.874 20.2188 275.008 20.2871C275.23 20.3984 275.404 20.5898 275.494 20.8223ZM280.883 21.1816C280.883 20.6289 280.435 20.1816 279.883 20.1816C279.331 20.1816 278.883 20.6289 278.883 21.1816V30.8184C278.883 31.3711 279.331 31.8184 279.883 31.8184C280.435 31.8184 280.883 31.3711 280.883 30.8184V21.1816ZM285.208 22C285.76 22 286.208 22.4473 286.208 23V29C286.208 29.0957 286.195 29.1895 286.169 29.2773C286.134 29.4004 286.075 29.5156 285.998 29.6152C285.815 29.8496 285.529 30 285.208 30C284.656 30 284.208 29.5527 284.208 29V23C284.208 22.4473 284.656 22 285.208 22ZM291.533 23C291.533 22.4473 291.085 22 290.533 22C289.981 22 289.533 22.4473 289.533 23V29C289.533 29.2969 289.662 29.5625 289.866 29.7461C290.043 29.9043 290.277 30 290.533 30C290.651 30 290.764 29.9785 290.87 29.9414C291.002 29.8926 291.121 29.8184 291.221 29.7246C291.312 29.6387 291.388 29.5352 291.441 29.418C291.5 29.291 291.533 29.1484 291.533 29V23ZM295.858 22C296.41 22 296.858 22.4473 296.858 23V29C296.858 29.0898 296.846 29.1758 296.824 29.2578L296.794 29.3535L296.771 29.4082L296.733 29.4844C296.673 29.5918 296.594 29.6875 296.5 29.7676C296.326 29.9121 296.102 30 295.858 30C295.306 30 294.858 29.5527 294.858 29V23C294.858 22.8262 294.903 22.6621 294.981 22.5195C295.055 22.3828 295.161 22.2676 295.287 22.1797C295.449 22.0664 295.646 22 295.858 22ZM301.93 20.5176C301.747 20.3105 301.48 20.1816 301.182 20.1816C300.63 20.1816 300.182 20.6289 300.182 21.1816V30.8184C300.182 31.3711 300.63 31.8184 301.182 31.8184C301.734 31.8184 302.182 31.3711 302.182 30.8184V21.1816C302.182 20.9277 302.087 20.6953 301.93 20.5176ZM306.507 14C307.059 14 307.507 14.4473 307.507 15V37C307.507 37.5527 307.059 38 306.507 38C305.955 38 305.507 37.5527 305.507 37V15C305.507 14.4473 305.955 14 306.507 14ZM312.832 11C312.832 10.4473 312.384 10 311.832 10C311.28 10 310.832 10.4473 310.832 11V41C310.832 41.5527 311.28 42 311.832 42C312.113 42 312.367 41.8828 312.549 41.6973C312.638 41.6055 312.709 41.498 312.759 41.377C312.788 41.3047 312.809 41.2285 312.821 41.1504C312.828 41.1016 312.832 41.0508 312.832 41V11ZM317.157 6C317.381 6 317.587 6.07422 317.753 6.19922C317.998 6.38086 318.157 6.67188 318.157 7V45C318.157 45.5527 317.709 46 317.157 46C316.92 46 316.703 45.918 316.532 45.7812C316.303 45.5977 316.157 45.3164 316.157 45V7C316.157 6.44727 316.605 6 317.157 6ZM323.307 6.4375C323.127 6.17188 322.824 6 322.481 6C321.929 6 321.481 6.44727 321.481 7V45C321.481 45.2695 321.587 45.5137 321.76 45.6934C321.858 45.7949 321.978 45.877 322.112 45.9297C322.226 45.9746 322.351 46 322.481 46C323.033 46 323.481 45.5527 323.481 45V7C323.481 6.79102 323.417 6.59766 323.307 6.4375ZM327.806 14C328.358 14 328.806 14.4473 328.806 15V37C328.806 37.5527 328.358 38 327.806 38C327.483 38 327.196 37.8477 327.013 37.6094C326.883 37.4414 326.806 37.2305 326.806 37V15C326.806 14.4473 327.254 14 327.806 14ZM333.779 6.23828C333.604 6.08984 333.378 6 333.13 6C333.059 6 332.991 6.00586 332.924 6.02148C332.876 6.03125 332.829 6.04492 332.784 6.06055L332.714 6.0918L332.637 6.12891C332.554 6.17578 332.479 6.23438 332.413 6.30273C332.238 6.48242 332.13 6.72852 332.13 7V45C332.13 45.5527 332.578 46 333.13 46C333.682 46 334.13 45.5527 334.13 45V7C334.13 6.69531 333.994 6.42188 333.779 6.23828ZM339.424 16.5684C339.444 16.6484 339.455 16.7324 339.455 16.8184V35.1816C339.455 35.7344 339.007 36.1816 338.455 36.1816C337.903 36.1816 337.455 35.7344 337.455 35.1816V16.8184C337.455 16.4512 337.653 16.1309 337.948 15.957C338.013 15.918 338.083 15.8867 338.156 15.8633C338.251 15.834 338.351 15.8184 338.455 15.8184C338.921 15.8184 339.313 16.1367 339.424 16.5684ZM344.779 7C344.779 6.44727 344.331 6 343.779 6C343.227 6 342.779 6.44727 342.779 7V45C342.779 45.5527 343.227 46 343.779 46C344.331 46 344.779 45.5527 344.779 45V7ZM349.104 2C349.656 2 350.104 2.44727 350.104 3V49C350.104 49.5527 349.656 50 349.104 50C348.552 50 348.104 49.5527 348.104 49V3C348.104 2.44727 348.552 2 349.104 2ZM355.168 6.32617C354.985 6.125 354.721 6 354.429 6C354.215 6 354.016 6.06836 353.853 6.18359C353.596 6.36328 353.429 6.66211 353.429 7V45C353.429 45.5527 353.877 46 354.429 46C354.981 46 355.429 45.5527 355.429 45V7C355.429 6.74023 355.33 6.50391 355.168 6.32617ZM359.754 3.81836C360.306 3.81836 360.754 4.26562 360.754 4.81836V47.1816C360.754 47.7344 360.306 48.1816 359.754 48.1816C359.202 48.1816 358.754 47.7344 358.754 47.1816V4.81836C358.754 4.26562 359.202 3.81836 359.754 3.81836ZM366.078 16.8184C366.078 16.2656 365.63 15.8184 365.078 15.8184L365.043 15.8203L364.944 15.8281C364.847 15.8398 364.754 15.8672 364.668 15.9062C364.32 16.0625 364.078 16.4121 364.078 16.8184V35.1816C364.078 35.7344 364.526 36.1816 365.078 36.1816C365.63 36.1816 366.078 35.7344 366.078 35.1816V16.8184ZM370.403 10C370.955 10 371.403 10.4473 371.403 11V41C371.403 41.5527 370.955 42 370.403 42C369.851 42 369.403 41.5527 369.403 41V11C369.403 10.4473 369.851 10 370.403 10ZM376.727 15C376.727 14.4473 376.279 14 375.727 14C375.175 14 374.727 14.4473 374.727 15V37C374.727 37.5527 375.175 38 375.727 38C376.279 38 376.727 37.5527 376.727 37V15ZM381.052 3.81836C381.178 3.81836 381.299 3.8418 381.41 3.88477C381.546 3.9375 381.668 4.01758 381.768 4.12109C381.944 4.30078 382.052 4.54688 382.052 4.81836V47.1816C382.052 47.7344 381.604 48.1816 381.052 48.1816C380.5 48.1816 380.052 47.7344 380.052 47.1816V4.81836C380.052 4.26562 380.5 3.81836 381.052 3.81836ZM387.377 7C387.377 6.44727 386.929 6 386.377 6C386.307 6 386.239 6.00781 386.172 6.02148C386.11 6.0332 386.05 6.05273 385.992 6.07617C385.942 6.0957 385.895 6.12109 385.85 6.15039C385.808 6.17578 385.769 6.20508 385.731 6.23633C385.515 6.41992 385.377 6.69336 385.377 7V45C385.377 45.1758 385.422 45.3418 385.502 45.4863L385.536 45.543C385.57 45.5977 385.61 45.6465 385.653 45.6914C385.704 45.7441 385.761 45.793 385.824 45.834L385.928 45.8926C386.063 45.9609 386.216 46 386.377 46C386.512 46 386.64 45.9727 386.757 45.9238C386.896 45.8672 387.02 45.7812 387.119 45.6719C387.162 45.623 387.201 45.5703 387.234 45.5156C387.26 45.4727 387.282 45.4277 387.302 45.3809L387.327 45.3125C387.343 45.2637 387.356 45.2129 387.364 45.1621C387.373 45.1094 387.377 45.0547 387.377 45V7ZM391.702 3.81836C392.254 3.81836 392.702 4.26562 392.702 4.81836V47.1816C392.702 47.5742 392.475 47.9141 392.146 48.0781C392.093 48.1035 392.037 48.125 391.979 48.1426C391.891 48.168 391.798 48.1816 391.702 48.1816C391.15 48.1816 390.702 47.7344 390.702 47.1816V4.81836C390.702 4.26562 391.15 3.81836 391.702 3.81836ZM398.026 15C398.026 14.4473 397.578 14 397.026 14C396.474 14 396.026 14.4473 396.026 15V37C396.026 37.5527 396.474 38 397.026 38C397.578 38 398.026 37.5527 398.026 37V15ZM402.351 3.81836C402.903 3.81836 403.351 4.26562 403.351 4.81836V47.1816C403.351 47.7344 402.903 48.1816 402.351 48.1816C402.192 48.1816 402.042 48.1445 401.909 48.0781C401.797 48.0234 401.698 47.9473 401.614 47.8574C401.451 47.6797 401.351 47.4434 401.351 47.1816V4.81836C401.351 4.5625 401.447 4.33008 401.604 4.1543C401.787 3.94727 402.054 3.81836 402.351 3.81836ZM408.676 21.1816C408.676 20.9355 408.587 20.709 408.439 20.5352C408.256 20.3184 407.982 20.1816 407.676 20.1816C407.124 20.1816 406.676 20.6289 406.676 21.1816V30.8184C406.676 31.3711 407.124 31.8184 407.676 31.8184C408.228 31.8184 408.676 31.3711 408.676 30.8184V21.1816ZM413 22C413.256 22 413.489 22.0957 413.666 22.2539C413.871 22.4375 414 22.7031 414 23V29C414 29.5527 413.552 30 413 30C412.448 30 412 29.5527 412 29V23C412 22.8613 412.029 22.7285 412.08 22.6074C412.127 22.4961 412.194 22.3965 412.276 22.3105C412.396 22.1855 412.548 22.0898 412.718 22.0391C412.808 22.0137 412.902 22 413 22Z" fill="#FCFCFC"/>
</svg>
